<svg xmlns="http://www.w3.org/2000/svg" viewBox="-0.5 -0.5 16 16" fill="#000000" id="List-Light--Streamline-Phosphor.svg" height="16" width="16"><desc>List Light Streamline Icon: https://streamlinehq.com</desc><path d="M14.85 7.5c0 0.2591015625 -0.210046875 0.4691484375 -0.4691484375 0.4691484375H0.6191484375c-0.3611484375 0 -0.5868691406250001 -0.39095507812499997 -0.406294921875 -0.70372265625 0.083806640625 -0.145154296875 0.238681640625 -0.23457421875 0.406294921875 -0.23457421875h13.761703125c0.2591015625 0 0.4691484375 0.210046875 0.4691484375 0.4691484375ZM0.6191484375 2.964896484375h13.761703125c0.3611484375 0 0.5868691406250001 -0.3909609375 0.406294921875 -0.703728515625 -0.083806640625 -0.145154296875 -0.2386875 -0.23457421875 -0.406294921875 -0.23457421875H0.6191484375c-0.3611484375 0 -0.5868691406250001 0.3909609375 -0.406294921875 0.703728515625 0.083806640625 0.145154296875 0.238681640625 0.23457421875 0.406294921875 0.23457421875Zm13.761703125 9.070212890625001H0.6191484375c-0.3611484375 0 -0.5868691406250001 0.39095507812499997 -0.406294921875 0.70372265625 0.083806640625 0.14516015624999998 0.23867578125000002 0.23458007812499998 0.406294921875 0.23457421875h13.761703125c0.3611484375 -0.000017578125 0.586875 -0.390984375 0.40628320312500005 -0.703740234375 -0.083806640625 -0.1451484375 -0.238681640625 -0.23455664062499998 -0.40628320312500005 -0.23455664062499998Z" stroke-width="1"></path></svg>